<svg xmlns="http://www.w3.org/2000/svg" version="1.1" xmlns:xlink="http://www.w3.org/1999/xlink" xmlns:svgjs="http://svgjs.dev/svgjs" width="1500" height="310" viewBox="0 0 1500 310"><g transform="matrix(1,0,0,1,-0.9090909090909918,-0.8590103902702424)"><svg viewBox="0 0 396 82" data-background-color="#ffffff" preserveAspectRatio="xMidYMid meet" height="310" width="1500" xmlns="http://www.w3.org/2000/svg" xmlns:xlink="http://www.w3.org/1999/xlink"><g id="tight-bounds" transform="matrix(1,0,0,1,0.2400000000000091,0.22722210323277636)"><svg viewBox="0 0 395.52 81.54555579353443" height="81.54555579353443" width="395.52"><g><svg viewBox="0 0 395.52 81.54555579353443" height="81.54555579353443" width="395.52"><g><svg viewBox="0 0 395.52 81.54555579353443" height="81.54555579353443" width="395.52"><g id="textblocktransform"><svg viewBox="0 0 395.52 81.54555579353443" height="81.54555579353443" width="395.52" id="textblock"><g><rect width="116.11736764735822" height="4.335809466365018" y="68.31949220867729" fill="#7e91c6" data-fill-palette-color="tertiary"></rect><rect width="116.11736764735822" height="4.335809466365018" y="68.31949220867729" x="279.4026323526418" fill="#7e91c6" data-fill-palette-color="tertiary"></rect></g><g><svg viewBox="0 0 395.52 48.07895152902018" height="48.07895152902018" width="395.52"><g transform="matrix(1,0,0,1,0,0)"><svg width="395.52" viewBox="0.02 -34.99 352.05 42.800000000000004" height="48.07895152902018" data-palette-color="#187ed8"><path d="M29.39-33.91L29.39-33.91Q29.39-32.79 27.03-32.79L27.03-32.79 21.36-32.79 21.36 0 8.86 0 8.86-32.79 5.2-32.79Q3.32-32.79 2.61-32.62L2.61-32.62Q1.68-32.42 1.27-32.42L1.27-32.42Q0.02-32.42 0.02-33.4L0.02-33.4Q0.02-34.55 2.44-34.55L2.44-34.55 24.22-34.55Q25.9-34.55 26.71-34.69L26.71-34.69Q27.69-34.86 28.17-34.86L28.17-34.86Q29.39-34.86 29.39-33.91ZM34.47 0L34.47-26.07 44.97-26.07 44.97-18.41Q46.65-22.58 48.59-24.55 50.53-26.51 52.49-26.51L52.49-26.51Q53.59-26.51 54.23-25.94 54.88-25.37 54.88-24.66 54.88-23.95 54.69-23.54 54.49-23.12 54.17-22.83L54.17-22.83Q53.51-22.22 52.93-22.22L52.93-22.22Q52-22.22 51.56-22.41L51.56-22.41Q50.8-22.75 50.22-22.75 49.63-22.75 48.73-21.81 47.82-20.87 46.99-19.21L46.99-19.21Q44.97-15.16 44.97-10.42L44.97-10.42 44.97 0 34.47 0ZM74.36 0L74.36-1.61Q71.24 0.46 67.43 0.46L67.43 0.46Q62.37 0.46 59.32-2.08L59.32-2.08Q56.15-4.69 56.15-9.33L56.15-9.33Q56.15-13.43 59.3-16.06L59.3-16.06Q62.52-18.73 67.77-18.73L67.77-18.73Q71.28-18.73 74.36-17.38L74.36-17.38 74.36-24.1Q72.14-24.73 70.44-24.73 68.75-24.73 67.57-24.58 66.4-24.44 65.35-24.15L65.35-24.15Q63.08-23.51 61.91-22.44L61.91-22.44Q61.23-21.8 60.66-21.8 60.1-21.8 59.81-22.08 59.52-22.36 59.52-22.71 59.52-23.05 59.64-23.33 59.76-23.61 60.1-23.9L60.1-23.9Q60.83-24.54 62.54-25.17L62.54-25.17Q66.08-26.51 69.65-26.51L69.65-26.51Q80.49-26.51 83.49-21.34L83.49-21.34Q84.81-19.04 84.81-15.31L84.81-15.31 84.81 0 74.36 0ZM74.36-3.71L74.36-15.48Q71.28-16.97 68.23-16.97L68.23-16.97Q67.74-16.97 67.3-16.89L67.3-16.89 67.3-1.37Q67.43-1.34 67.57-1.34 67.72-1.34 67.87-1.34L67.87-1.34Q71.21-1.34 74.36-3.71L74.36-3.71ZM101.73 1.1L88.32-26.07 99.38-26.07 106.02-12.38 110.2-20.68Q111.49-23.34 111.82-24.63 112.15-25.93 112.48-26.22 112.81-26.51 113.29-26.51 113.76-26.51 114.03-26.2 114.3-25.88 114.3-25.56 114.3-25.24 114.24-24.93 114.18-24.61 114.01-24.07L114.01-24.07Q113.64-23.07 112.47-20.61L112.47-20.61 101.73 1.1ZM141.2-5.93L141.2-5.93Q142.15-5.93 142.15-5.05L142.15-5.05Q142.15-4.39 141.3-3.49L141.3-3.49Q137.44 0.46 130.73 0.46L130.73 0.46Q124.7 0.46 120.57-3.17L120.57-3.17Q116.3-6.96 116.3-12.74L116.3-12.74Q116.3-18.65 120.16-22.46L120.16-22.46Q124.23-26.51 131-26.51L131-26.51Q136.42-26.51 140.1-23.22L140.1-23.22Q144.08-19.68 144.08-13.92L144.08-13.92Q144.08-13.09 144.03-12.16L144.03-12.16 127.92-12.16 127.92-1.68Q129.58-1.34 131.66-1.34L131.66-1.34Q136.05-1.34 139.15-4.25L139.15-4.25Q139.78-4.88 140.05-5.25L140.05-5.25Q140.62-5.93 141.2-5.93ZM134.68-13.94L134.68-24.27Q133.1-24.73 131.09-24.73 129.09-24.73 127.92-24.46L127.92-24.46 127.92-13.94 134.68-13.94ZM150.28 0L150.28-34.55 160.78-34.55 160.78 0 150.28 0ZM168.86-1.76L168.86-1.76Q168-2.25 167.38-2.78 166.76-3.32 166.76-3.93L166.76-3.93Q166.76-5.1 167.76-5.1L167.76-5.1Q168.42-5.1 169.22-4.37 170.03-3.64 171.03-3.09 172.03-2.54 173.2-2.15L173.2-2.15Q175.62-1.34 177.67-1.34 179.72-1.34 180.83-1.61 181.94-1.88 182.7-2.34L182.7-2.34Q184.31-3.34 184.31-4.91L184.31-4.91Q184.31-6.35 182.92-7.81L182.92-7.81Q181.75-9.06 179.6-10.79L179.6-10.79 175.42-14.06Q169.15-18.9 168.03-22.9L168.03-22.9Q167.64-24.29 167.64-26 167.64-27.71 168.41-29.37 169.17-31.03 170.69-32.28L170.69-32.28Q173.94-34.99 179.53-34.99L179.53-34.99Q182.38-34.99 184.65-34.14 186.92-33.3 187.75-32.64 188.58-31.98 188.58-31.45L188.58-31.45Q188.58-30.32 187.66-30.32L187.66-30.32Q187.12-30.32 186.51-30.86 185.9-31.4 185.15-31.8 184.41-32.2 183.46-32.52L183.46-32.52Q181.41-33.2 179.43-33.2L179.43-33.2Q175.79-33.2 175.79-30.81L175.79-30.81Q175.79-29.81 176.45-28.96L176.45-28.96Q177.62-27.47 181.03-24.69 184.43-21.92 186.5-19.85 188.56-17.77 189.63-16.11L189.63-16.11Q191.34-13.5 191.34-10.68 191.34-7.86 190.35-5.9 189.36-3.93 187.58-2.51L187.58-2.51Q183.82 0.46 178.26 0.46 172.69 0.46 168.86-1.76ZM214.41 0.46L214.41 0.46Q211.02 0.46 207.84-1.07L207.84-1.07 207.84 7.81 197.81 7.81 197.81-26.07 207.84-26.07 207.84-24.73Q211.04-26.51 214.39-26.51 217.73-26.51 220.3-25.51 222.86-24.51 224.69-22.75L224.69-22.75Q228.47-19.04 228.47-13.26L228.47-13.26Q228.47-7.42 224.74-3.56L224.74-3.56Q220.88 0.46 214.41 0.46ZM214.34-24.73L214.34-24.73Q210.72-24.73 207.84-22.73L207.84-22.73 207.84-3.25Q211.14-1.34 215.02-1.34L215.02-1.34 215.66-1.34Q215.95-1.34 216.22-1.39L216.22-1.39 216.22-24.58Q215.29-24.73 214.34-24.73ZM254.67-26.51L254.67-26.51Q263.26-26.51 263.26-18.16L263.26-18.16 263.26 0 252.76 0 252.76-23.75Q252.32-24.05 251.6-24.05 250.88-24.05 250.1-23.71 249.32-23.36 248.47-22.75L248.47-22.75Q246.64-21.41 245.22-19.38L245.22-19.38 245.22 0 234.72 0 234.72-34.55 245.22-34.55 245.22-21.95Q249.39-26.51 254.67-26.51ZM293.9-5.93L293.9-5.93Q294.85-5.93 294.85-5.05L294.85-5.05Q294.85-4.39 294-3.49L294-3.49Q290.14 0.46 283.42 0.46L283.42 0.46Q277.39 0.46 273.27-3.17L273.27-3.17Q269-6.96 269-12.74L269-12.74Q269-18.65 272.85-22.46L272.85-22.46Q276.93-26.51 283.69-26.51L283.69-26.51Q289.11-26.51 292.8-23.22L292.8-23.22Q296.78-19.68 296.78-13.92L296.78-13.92Q296.78-13.09 296.73-12.16L296.73-12.16 280.62-12.16 280.62-1.68Q282.28-1.34 284.35-1.34L284.35-1.34Q288.75-1.34 291.85-4.25L291.85-4.25Q292.48-4.88 292.75-5.25L292.75-5.25Q293.31-5.93 293.9-5.93ZM287.38-13.94L287.38-24.27Q285.79-24.73 283.79-24.73 281.79-24.73 280.62-24.46L280.62-24.46 280.62-13.94 287.38-13.94ZM302.98 0L302.98-26.07 313.48-26.07 313.48-18.41Q315.16-22.58 317.1-24.55 319.04-26.51 321-26.51L321-26.51Q322.09-26.51 322.74-25.94 323.39-25.37 323.39-24.66 323.39-23.95 323.19-23.54 323-23.12 322.68-22.83L322.68-22.83Q322.02-22.22 321.43-22.22L321.43-22.22Q320.51-22.22 320.07-22.41L320.07-22.41Q319.31-22.75 318.73-22.75 318.14-22.75 317.24-21.81 316.33-20.87 315.5-19.21L315.5-19.21Q313.48-15.16 313.48-10.42L313.48-10.42 313.48 0 302.98 0ZM349.19-5.93L349.19-5.93Q350.14-5.93 350.14-5.05L350.14-5.05Q350.14-4.39 349.29-3.49L349.29-3.49Q345.43 0.46 338.72 0.46L338.72 0.46Q332.69 0.46 328.56-3.17L328.56-3.17Q324.29-6.96 324.29-12.74L324.29-12.74Q324.29-18.65 328.15-22.46L328.15-22.46Q332.22-26.51 338.99-26.51L338.99-26.51Q344.41-26.51 348.09-23.22L348.09-23.22Q352.07-19.68 352.07-13.92L352.07-13.92Q352.07-13.09 352.02-12.16L352.02-12.16 335.91-12.16 335.91-1.68Q337.57-1.34 339.65-1.34L339.65-1.34Q344.04-1.34 347.14-4.25L347.14-4.25Q347.78-4.88 348.04-5.25L348.04-5.25Q348.61-5.93 349.19-5.93ZM342.67-13.94L342.67-24.27Q341.09-24.73 339.08-24.73 337.08-24.73 335.91-24.46L335.91-24.46 335.91-13.94 342.67-13.94Z" opacity="1" transform="matrix(1,0,0,1,0,0)" fill="#187ed8" class="wordmark-text-0" data-fill-palette-color="primary" id="text-0"></path></svg></g></svg></g><g transform="matrix(1,0,0,1,116.11736764735822,59.42923809018515)"><svg viewBox="0 0 163.28526470528354 22.116317703349285" height="22.116317703349285" width="163.28526470528354"><g transform="matrix(1,0,0,1,8,0)"><svg width="147.28526470528354" viewBox="4.7 -37 312.97 47" height="22.116317703349285" data-palette-color="#7e91c6"><path d="M6.9-2.95L24.05-2.95Q24.65-2.95 25.1-2.53 25.55-2.1 25.55-1.5L25.55-1.5Q25.55-0.85 25.1-0.43 24.65 0 24.05 0L24.05 0 6.2 0Q5.55 0 5.13-0.45 4.7-0.9 4.7-1.5L4.7-1.5 4.7-33.5Q4.7-34.1 5.15-34.55 5.6-35 6.3-35L6.3-35Q6.9-35 7.38-34.55 7.85-34.1 7.85-33.5L7.85-33.5 7.85-2.1 6.9-2.95ZM41.9 0.5L41.9 0.5Q38.05 0.5 35.1-1.15 32.15-2.8 30.5-5.75 28.85-8.7 28.85-12.65L28.85-12.65Q28.85-16.9 30.52-19.9 32.2-22.9 34.87-24.53 37.55-26.15 40.55-26.15L40.55-26.15Q42.75-26.15 44.82-25.38 46.9-24.6 48.5-23.08 50.1-21.55 51.1-19.35 52.1-17.15 52.15-14.25L52.15-14.25Q52.15-13.65 51.7-13.23 51.25-12.8 50.65-12.8L50.65-12.8 30.6-12.8 30-15.5 49.7-15.5 49.05-14.9 49.05-15.9Q48.8-18.25 47.5-19.9 46.2-21.55 44.37-22.4 42.55-23.25 40.55-23.25L40.55-23.25Q39.05-23.25 37.47-22.65 35.9-22.05 34.62-20.78 33.35-19.5 32.55-17.53 31.75-15.55 31.75-12.85L31.75-12.85Q31.75-9.9 32.95-7.5 34.15-5.1 36.4-3.7 38.65-2.3 41.85-2.3L41.85-2.3Q43.55-2.3 44.95-2.8 46.35-3.3 47.42-4.13 48.5-4.95 49.2-5.85L49.2-5.85Q49.75-6.3 50.25-6.3L50.25-6.3Q50.8-6.3 51.17-5.9 51.55-5.5 51.55-5L51.55-5Q51.55-4.4 51.05-3.95L51.05-3.95Q49.55-2.15 47.15-0.83 44.75 0.5 41.9 0.5ZM56.7-25.45L56.7-25.45 68.34-25.45Q68.95-25.45 69.34-25.03 69.75-24.6 69.75-24L69.75-24Q69.75-23.45 69.34-23.05 68.95-22.65 68.34-22.65L68.34-22.65 56.7-22.65Q56.1-22.65 55.67-23.08 55.25-23.5 55.25-24.05L55.25-24.05Q55.25-24.65 55.67-25.05 56.1-25.45 56.7-25.45ZM61.85-32.5L61.85-32.5Q62.5-32.5 62.92-32.05 63.35-31.6 63.35-31L63.35-31 63.35-5.9Q63.35-4.5 63.72-3.8 64.09-3.1 64.7-2.88 65.3-2.65 65.9-2.65L65.9-2.65Q66.3-2.65 66.62-2.78 66.95-2.9 67.34-2.9L67.34-2.9Q67.8-2.9 68.12-2.55 68.45-2.2 68.45-1.65L68.45-1.65Q68.45-0.95 67.65-0.48 66.84 0 65.75 0L65.75 0Q65.3 0 64.4-0.08 63.5-0.15 62.55-0.63 61.6-1.1 60.97-2.3 60.35-3.5 60.35-5.75L60.35-5.75 60.35-31Q60.35-31.6 60.77-32.05 61.2-32.5 61.85-32.5ZM108.04-25.4L108.04-25.4Q108.69-25.4 109.12-24.95 109.54-24.5 109.54-23.9L109.54-23.9 109.54-9.8Q109.54-4.85 106.74-2.25 103.94 0.35 99.19 0.35L99.19 0.35Q94.49 0.35 91.72-2.25 88.94-4.85 88.94-9.8L88.94-9.8 88.94-23.9Q88.94-24.5 89.37-24.95 89.79-25.4 90.44-25.4L90.44-25.4Q91.09-25.4 91.52-24.95 91.94-24.5 91.94-23.9L91.94-23.9 91.94-9.8Q91.94-6.2 93.87-4.33 95.79-2.45 99.19-2.45L99.19-2.45Q102.64-2.45 104.59-4.33 106.54-6.2 106.54-9.8L106.54-9.8 106.54-23.9Q106.54-24.5 106.94-24.95 107.34-25.4 108.04-25.4ZM115.94-4.05L115.94-4.05Q115.54-4.65 115.56-5.23 115.59-5.8 116.19-6.15L116.19-6.15Q116.59-6.5 117.11-6.45 117.64-6.4 118.09-5.95L118.09-5.95Q119.44-4.2 121.36-3.13 123.29-2.05 125.94-2.05L125.94-2.05Q127.34-2.05 128.71-2.53 130.09-3 130.99-3.98 131.89-4.95 131.89-6.45L131.89-6.45Q131.89-8 130.99-8.95 130.09-9.9 128.66-10.45 127.24-11 125.64-11.4L125.64-11.4Q123.94-11.85 122.34-12.43 120.74-13 119.51-13.88 118.29-14.75 117.54-16 116.79-17.25 116.79-19.05L116.79-19.05Q116.79-21.15 117.94-22.75 119.09-24.35 121.06-25.25 123.04-26.15 125.54-26.15L125.54-26.15Q126.79-26.15 128.24-25.83 129.69-25.5 131.09-24.75 132.49-24 133.59-22.7L133.59-22.7Q134.04-22.25 134.04-21.68 134.04-21.1 133.54-20.65L133.54-20.65Q133.14-20.35 132.61-20.35 132.09-20.35 131.74-20.75L131.74-20.75Q130.54-22.1 128.89-22.8 127.24-23.5 125.34-23.5L125.34-23.5Q123.89-23.5 122.61-23.03 121.34-22.55 120.49-21.6 119.64-20.65 119.64-19.1L119.64-19.1Q119.74-17.65 120.66-16.75 121.59-15.85 123.11-15.25 124.64-14.65 126.54-14.15L126.54-14.15Q128.14-13.75 129.61-13.2 131.09-12.65 132.21-11.83 133.34-11 134.01-9.75 134.69-8.5 134.69-6.6L134.69-6.6Q134.69-4.4 133.46-2.8 132.24-1.2 130.19-0.35 128.14 0.5 125.64 0.5L125.64 0.5Q122.94 0.5 120.41-0.55 117.89-1.6 115.94-4.05ZM156.73-35L156.73-35 175.08-35Q175.68-35 176.13-34.58 176.58-34.15 176.58-33.5L176.58-33.5Q176.58-32.85 176.13-32.45 175.68-32.05 175.08-32.05L175.08-32.05 157.88-32.05 158.38-32.9 158.38-18.85 157.83-19.5 172.83-19.5Q173.43-19.5 173.88-19.05 174.33-18.6 174.33-18L174.33-18Q174.33-17.35 173.88-16.95 173.43-16.55 172.83-16.55L172.83-16.55 157.93-16.55 158.38-17.05 158.38-2.65 158.13-2.95 175.08-2.95Q175.68-2.95 176.13-2.5 176.58-2.05 176.58-1.45L176.58-1.45Q176.58-0.8 176.13-0.4 175.68 0 175.08 0L175.08 0 156.73 0Q156.13 0 155.68-0.45 155.23-0.9 155.23-1.5L155.23-1.5 155.23-33.5Q155.23-34.1 155.68-34.55 156.13-35 156.73-35ZM182.18-25.8L182.18-25.8Q182.93-25.8 183.38-25.15L183.38-25.15 201.08-2.25Q201.43-1.85 201.43-1.35L201.43-1.35Q201.43-0.75 200.98-0.3 200.53 0.15 199.93 0.15L199.93 0.15Q199.23 0.15 198.68-0.5L198.68-0.5 180.93-23.4Q180.63-23.75 180.63-24.3L180.63-24.3Q180.63-24.95 181.11-25.38 181.58-25.8 182.18-25.8ZM182.18 0.15L182.18 0.15Q181.68 0.15 181.21-0.2 180.73-0.55 180.73-1.2L180.73-1.2Q180.73-1.75 181.08-2.15L181.08-2.15 189.53-13 191.18-10.6 183.38-0.45Q182.93 0.15 182.18 0.15ZM199.93-25.8L199.93-25.8Q200.58-25.8 200.96-25.43 201.33-25.05 201.33-24.5L201.33-24.5Q201.33-24.25 201.26-24 201.18-23.75 200.98-23.55L200.98-23.55 192.53-12.45 190.98-14.85 198.68-25.15Q199.23-25.8 199.93-25.8ZM219.23-25.75L219.23-25.75Q222.63-25.75 225.25-24.08 227.88-22.4 229.43-19.48 230.98-16.55 230.98-12.75L230.98-12.75Q230.98-8.95 229.43-6 227.88-3.05 225.23-1.35 222.58 0.35 219.28 0.35L219.28 0.35Q217.53 0.35 215.95-0.18 214.38-0.7 213.08-1.6 211.78-2.5 210.78-3.73 209.78-4.95 209.18-6.4L209.18-6.4 210.08-7.05 210.08 8.5Q210.08 9.1 209.65 9.55 209.23 10 208.58 10L208.58 10Q207.93 10 207.5 9.55 207.08 9.1 207.08 8.5L207.08 8.5 207.08-24.1Q207.08-24.75 207.48-25.2 207.88-25.65 208.58-25.65L208.58-25.65Q209.23-25.65 209.65-25.2 210.08-24.75 210.08-24.1L210.08-24.1 210.08-18.7 209.38-19.1Q209.88-20.65 210.85-21.88 211.83-23.1 213.13-23.98 214.43-24.85 215.98-25.3 217.53-25.75 219.23-25.75ZM218.98-22.95L218.98-22.95Q216.28-22.95 214.23-21.63 212.18-20.3 211-18.03 209.83-15.75 209.83-12.75L209.83-12.75Q209.83-9.8 211-7.45 212.18-5.1 214.23-3.78 216.28-2.45 218.98-2.45L218.98-2.45Q221.63-2.45 223.65-3.78 225.68-5.1 226.88-7.45 228.08-9.8 228.08-12.75L228.08-12.75Q228.08-15.7 226.88-18 225.68-20.3 223.65-21.63 221.63-22.95 218.98-22.95ZM240.48-35.5L240.48-1.5Q240.48-0.9 240.03-0.45 239.58 0 238.98 0L238.98 0Q238.33 0 237.9-0.45 237.48-0.9 237.48-1.5L237.48-1.5 237.48-35.5Q237.48-36.1 237.93-36.55 238.38-37 238.98-37L238.98-37Q239.63-37 240.05-36.55 240.48-36.1 240.48-35.5L240.48-35.5ZM271.77-12.8L271.77-12.8Q271.77-9 270.1-5.98 268.42-2.95 265.57-1.23 262.72 0.5 259.12 0.5L259.12 0.5Q255.57 0.5 252.7-1.23 249.82-2.95 248.15-5.98 246.47-9 246.47-12.8L246.47-12.8Q246.47-16.65 248.15-19.65 249.82-22.65 252.7-24.4 255.57-26.15 259.12-26.15L259.12-26.15Q262.72-26.15 265.57-24.4 268.42-22.65 270.1-19.65 271.77-16.65 271.77-12.8ZM268.77-12.8L268.77-12.8Q268.77-15.85 267.52-18.23 266.27-20.6 264.1-21.98 261.92-23.35 259.12-23.35L259.12-23.35Q256.37-23.35 254.2-21.98 252.02-20.6 250.75-18.23 249.47-15.85 249.47-12.8L249.47-12.8Q249.47-9.75 250.75-7.4 252.02-5.05 254.2-3.68 256.37-2.3 259.12-2.3L259.12-2.3Q261.92-2.3 264.1-3.68 266.27-5.05 267.52-7.4 268.77-9.75 268.77-12.8ZM279.42 0L279.42 0Q278.72 0 278.32-0.45 277.92-0.9 277.92-1.5L277.92-1.5 277.92-23.9Q277.92-24.5 278.35-24.95 278.77-25.4 279.42-25.4L279.42-25.4Q280.07-25.4 280.5-24.95 280.92-24.5 280.92-23.9L280.92-23.9 280.92-16.4 280.17-16.25Q280.32-18 281.05-19.73 281.77-21.45 283.02-22.9 284.27-24.35 286-25.25 287.72-26.15 289.87-26.15L289.87-26.15Q290.77-26.15 291.62-25.78 292.47-25.4 292.47-24.55L292.47-24.55Q292.47-23.8 292.07-23.4 291.67-23 291.12-23L291.12-23Q290.67-23 290.15-23.25 289.62-23.5 288.77-23.5L288.77-23.5Q287.37-23.5 285.97-22.68 284.57-21.85 283.42-20.45 282.27-19.05 281.6-17.32 280.92-15.6 280.92-13.85L280.92-13.85 280.92-1.5Q280.92-0.9 280.47-0.45 280.02 0 279.42 0ZM307.42 0.5L307.42 0.5Q303.57 0.5 300.62-1.15 297.67-2.8 296.02-5.75 294.37-8.7 294.37-12.65L294.37-12.65Q294.37-16.9 296.04-19.9 297.72-22.9 300.39-24.53 303.07-26.15 306.07-26.15L306.07-26.15Q308.27-26.15 310.34-25.38 312.42-24.6 314.02-23.08 315.62-21.55 316.62-19.35 317.62-17.15 317.67-14.25L317.67-14.25Q317.67-13.65 317.22-13.23 316.77-12.8 316.17-12.8L316.17-12.8 296.12-12.8 295.52-15.5 315.22-15.5 314.57-14.9 314.57-15.9Q314.32-18.25 313.02-19.9 311.72-21.55 309.89-22.4 308.07-23.25 306.07-23.25L306.07-23.25Q304.57-23.25 302.99-22.65 301.42-22.05 300.14-20.78 298.87-19.5 298.07-17.53 297.27-15.55 297.27-12.85L297.27-12.85Q297.27-9.9 298.47-7.5 299.67-5.1 301.92-3.7 304.17-2.3 307.37-2.3L307.37-2.3Q309.07-2.3 310.47-2.8 311.87-3.3 312.94-4.13 314.02-4.95 314.72-5.85L314.72-5.85Q315.27-6.3 315.77-6.3L315.77-6.3Q316.32-6.3 316.69-5.9 317.07-5.5 317.07-5L317.07-5Q317.07-4.4 316.57-3.95L316.57-3.95Q315.07-2.15 312.67-0.83 310.27 0.5 307.42 0.5Z" opacity="1" transform="matrix(1,0,0,1,0,0)" fill="#7e91c6" class="slogan-text-1" data-fill-palette-color="secondary" id="text-1"></path></svg></g></svg></g></svg></g></svg></g></svg></g><defs></defs></svg><rect width="395.52" height="81.54555579353443" fill="none" stroke="none" visibility="hidden"></rect></g></svg></g></svg>